<svg xmlns="http://www.w3.org/2000/svg" width="13.92cm" height="5.42cm" viewBox="0 0 394.47 153.75"><defs><style>.a{fill:#255897;}</style></defs><title>IMD_logo_02</title><path class="a" d="M87.14,153.75H50.42V.6h64.73l29.2,96.18h1.43L173.55.6h66.37V153.75h-37l.25-117.41h-1.44L162.94,153.75H127.61L88.4,36.34H87.18Z"/><rect class="a" y="0.6" width="36.72" height="153.15"/><path class="a" d="M370.69,8.93v4.7h-8.27V36.79h23.16V60H362.42V36.79H339.27V68.23H307.83V79.87H296.19V68.23h11.64V36.79h31.43V13.63h23.16V5.35h.64C354.4,2.16,343.73.7,330.9.7H253.41V153.64h83c42.62,0,56.07-19.78,56.07-61.58V60C392.49,33.81,385.56,17.64,370.69,8.93Zm-43-7.63h11.64V12.94H327.69Z"/></svg>